<?xml version="1.0" encoding="utf-8"?>
<!-- Generator: Adobe Illustrator 16.0.0, SVG Export Plug-In . SVG Version: 6.00 Build 0)  -->
<!DOCTYPE svg PUBLIC "-//W3C//DTD SVG 1.1//EN" "http://www.w3.org/Graphics/SVG/1.1/DTD/svg11.dtd">
<svg version="1.1" id="Calque_1" xmlns="http://www.w3.org/2000/svg" xmlns:xlink="http://www.w3.org/1999/xlink" x="0px" y="0px"
	 width="73.649px" height="72.973px" viewBox="0 0 73.649 72.973" enable-background="new 0 0 73.649 72.973" xml:space="preserve">
<g>
	<circle fill="#E52629" stroke="#8E2430" stroke-width="2" stroke-miterlimit="10" cx="37.247" cy="37" r="32"/>
</g>
<g>
	<g>
		<line fill="#9A9999" x1="22.913" y1="23.979" x2="53.413" y2="54.856"/>
		<path fill="#803333" d="M22.913,23.979c0,0,0.688,0.274,1.808,0.835c1.117,0.565,2.655,1.428,4.394,2.57
			c1.74,1.141,3.681,2.561,5.65,4.189c0.987,0.812,1.985,1.673,2.965,2.582c0.993,0.895,1.956,1.853,2.922,2.804
			c0.939,0.978,1.889,1.947,2.77,2.952c0.902,0.986,1.744,2.001,2.549,2.994c1.605,1.988,3.002,3.945,4.119,5.701
			c1.121,1.753,1.963,3.304,2.512,4.429c0.547,1.129,0.811,1.821,0.811,1.821s-0.688-0.272-1.811-0.832
			c-1.117-0.564-2.658-1.426-4.398-2.567c-1.74-1.14-3.682-2.559-5.648-4.189c-0.984-0.816-1.988-1.671-2.963-2.584
			c-0.994-0.895-1.951-1.855-2.918-2.808c-0.939-0.979-1.884-1.951-2.767-2.956c-0.896-0.991-1.745-2-2.545-2.997
			c-1.605-1.989-3-3.946-4.12-5.701c-1.121-1.753-1.965-3.302-2.516-4.425C23.179,24.669,22.913,23.979,22.913,23.979z"/>
	</g>
	<g>
		<g>
			<line fill="#7F5455" x1="53.413" y1="23.979" x2="22.913" y2="54.856"/>
			<path fill="#803637" d="M53.413,23.979c0,0-0.266,0.691-0.813,1.818c-0.551,1.124-1.396,2.672-2.516,4.425
				c-1.119,1.754-2.516,3.712-4.119,5.701c-0.801,0.997-1.65,2.006-2.547,2.997c-0.881,1.005-1.826,1.978-2.766,2.956
				c-0.967,0.952-1.924,1.913-2.918,2.808c-0.975,0.913-1.98,1.768-2.962,2.584c-1.968,1.631-3.909,3.05-5.65,4.189
				c-1.74,1.142-3.28,2.003-4.398,2.567c-1.122,0.56-1.811,0.832-1.811,0.832s0.264-0.692,0.81-1.821
				c0.55-1.125,1.393-2.676,2.512-4.429c1.118-1.756,2.514-3.713,4.12-5.701c0.805-0.993,1.646-2.008,2.548-2.994
				c0.882-1.005,1.831-1.975,2.771-2.952c0.967-0.951,1.928-1.909,2.922-2.804c0.981-0.908,1.979-1.77,2.965-2.582
				c1.969-1.629,3.91-3.049,5.65-4.189c1.738-1.142,3.277-2.005,4.393-2.57C52.725,24.252,53.413,23.979,53.413,23.979z"/>
		</g>
	</g>
</g>
<g>
	<g>
		<line fill="#FFFFFF" x1="21.997" y1="23.024" x2="52.497" y2="53.902"/>
		<path fill="#FFFFFF" d="M21.997,23.024c0,0,0.688,0.274,1.808,0.835c1.117,0.565,2.655,1.428,4.394,2.57
			c1.74,1.141,3.681,2.561,5.65,4.189c0.987,0.812,1.985,1.673,2.965,2.582c0.994,0.895,1.955,1.853,2.922,2.803
			c0.939,0.978,1.889,1.948,2.771,2.953c0.902,0.986,1.744,2.001,2.548,2.994c1.606,1.988,3.002,3.945,4.12,5.701
			c1.12,1.753,1.962,3.304,2.512,4.429c0.546,1.129,0.811,1.821,0.811,1.821s-0.688-0.272-1.811-0.832
			c-1.118-0.564-2.659-1.426-4.398-2.567c-1.741-1.14-3.682-2.559-5.649-4.189c-0.983-0.816-1.988-1.671-2.963-2.584
			c-0.994-0.895-1.951-1.855-2.918-2.808c-0.939-0.979-1.884-1.951-2.767-2.956c-0.896-0.991-1.745-2-2.545-2.997
			c-1.605-1.989-3-3.947-4.12-5.701c-1.121-1.753-1.965-3.302-2.516-4.425C22.262,23.715,21.997,23.024,21.997,23.024z"/>
	</g>
	<g>
		<g>
			<line fill="#FFFFFF" x1="52.497" y1="23.024" x2="21.997" y2="53.902"/>
			<path fill="#FFFFFF" d="M52.497,23.024c0,0-0.266,0.691-0.813,1.818c-0.552,1.124-1.396,2.672-2.517,4.425
				c-1.119,1.754-2.515,3.712-4.119,5.701c-0.801,0.997-1.649,2.005-2.546,2.997c-0.882,1.005-1.827,1.978-2.767,2.956
				c-0.967,0.952-1.924,1.913-2.918,2.808c-0.975,0.913-1.98,1.768-2.962,2.584c-1.968,1.631-3.909,3.05-5.65,4.189
				c-1.74,1.142-3.28,2.003-4.398,2.567c-1.122,0.56-1.811,0.832-1.811,0.832s0.264-0.692,0.81-1.821
				c0.55-1.125,1.393-2.676,2.512-4.429c1.118-1.756,2.514-3.713,4.12-5.701c0.805-0.993,1.646-2.008,2.548-2.994
				c0.882-1.005,1.831-1.975,2.771-2.953c0.967-0.951,1.928-1.908,2.922-2.803c0.98-0.908,1.979-1.77,2.965-2.582
				c1.97-1.629,3.91-3.049,5.65-4.189c1.739-1.142,3.277-2.005,4.394-2.57C51.809,23.298,52.497,23.024,52.497,23.024z"/>
		</g>
	</g>
</g>
</svg>
